<svg width="32" height="31" viewBox="0 0 32 31" fill="none" xmlns="http://www.w3.org/2000/svg">
<path fill-rule="evenodd" clip-rule="evenodd" d="M14.7106 14.5166L14.6743 14.4348C14.7106 14.3894 14.7424 14.344 14.7788 14.3077L14.7152 14.5075L14.7106 14.5166Z" fill="#202020"/>
<path fill-rule="evenodd" clip-rule="evenodd" d="M14.6743 14.3077L15.0103 14.8934L14.7561 15.8107C14.704 15.3113 14.6767 14.8097 14.6743 14.3077Z" fill="#ADC0E0"/>
<path fill-rule="evenodd" clip-rule="evenodd" d="M15.0103 15.6472L14.6743 15.0569V15.0115C14.6743 14.7754 14.6834 14.5393 14.6925 14.3077L15.0103 15.6472Z" fill="#A6B9DD"/>
<path fill-rule="evenodd" clip-rule="evenodd" d="M14.7515 14.3077L14.7878 14.3803L14.6743 14.3985L14.747 14.3077H14.7515Z" fill="#FBFDFF"/>
<path fill-rule="evenodd" clip-rule="evenodd" d="M15.4008 14.3258L15.5144 14.3077L14.6743 15.3157C14.9014 14.9752 15.1466 14.6437 15.4008 14.3258Z" fill="#97AFD9"/>
<path fill-rule="evenodd" clip-rule="evenodd" d="M14.6743 14.5801L15.2056 14.3077L15.3236 14.5483C15.1075 14.5636 14.891 14.5742 14.6743 14.5801Z" fill="#D3DCEE"/>
<path fill-rule="evenodd" clip-rule="evenodd" d="M17.3936 14.4818L12.2897 14.5726C13.9735 14.2531 15.6995 14.2223 17.3936 14.4818Z" fill="#819DD0"/>
<path d="M15.8644 0C20.1464 0 24.0197 1.73458 26.8259 4.54079C29.6321 7.34246 31.3667 11.2158 31.3667 15.4977C31.3667 19.7797 29.6321 23.653 26.8259 26.4592C24.0197 29.2654 20.1464 31 15.8644 31C13.829 31.002 11.8132 30.602 9.9329 29.8227C8.05258 29.0435 6.34473 27.9004 4.90745 26.4592C3.4657 25.0214 2.32233 23.3128 1.54306 21.4316C0.763796 19.5505 0.363999 17.5339 0.366651 15.4977C0.366651 11.2203 2.10123 7.34246 4.90745 4.54079C7.70912 1.73458 11.5824 0 15.8644 0ZM26.1629 5.20375C24.8124 3.84856 23.2073 2.77379 21.4398 2.04126C19.6724 1.30873 17.7776 0.932902 15.8644 0.935403C11.8458 0.935403 8.20406 2.57009 5.5704 5.20375C2.93674 7.83741 1.30206 11.4791 1.30206 15.4977C1.30206 19.5209 2.93674 23.158 5.5704 25.7962C8.20406 28.4299 11.8458 30.06 15.8644 30.06C19.8875 30.06 23.5247 28.4254 26.1629 25.7917C28.7966 23.158 30.4267 19.5209 30.4267 15.4977C30.4267 11.4791 28.792 7.83741 26.1584 5.20375H26.1629Z" fill="#202020"/>
<path d="M14.0637 19.3232L20.5253 12.8571L22.4097 14.7733L15.9527 21.2212C15.9096 21.2639 15.8566 21.2951 15.7983 21.312L13.6233 22.0885C13.556 22.112 13.4833 22.1151 13.4142 22.0976C13.3451 22.08 13.2827 22.0425 13.2348 21.9897C13.1869 21.937 13.1555 21.8713 13.1447 21.8008C13.1338 21.7304 13.1439 21.6583 13.1737 21.5936L13.9729 19.4549C13.9924 19.4031 14.0235 19.3565 14.0637 19.3186V19.3232ZM14.9038 21.0396L14.2363 20.3721C14.2325 20.3794 14.2295 20.387 14.2272 20.3948L13.9411 21.1531C13.9292 21.1761 13.9246 21.2021 13.9278 21.2277C13.9311 21.2534 13.9421 21.2774 13.9593 21.2966C13.9766 21.3159 13.9993 21.3294 14.0245 21.3354C14.0496 21.3414 14.076 21.3396 14.1001 21.3302L14.872 21.0532C14.8832 21.0502 14.8939 21.0456 14.9038 21.0396ZM21.0339 12.3485L22.723 10.6639C22.7909 10.5973 22.8822 10.5601 22.9773 10.5601C23.0724 10.5601 23.1637 10.5973 23.2316 10.6639L24.6211 12.0488C24.689 12.1169 24.7272 12.2092 24.7272 12.3054C24.7272 12.4016 24.689 12.4938 24.6211 12.5619L22.9228 14.2602L21.0384 12.3485H21.0339Z" fill="#202020"/>
<path fill-rule="evenodd" clip-rule="evenodd" d="M7.87917 7.15385H21.774C21.8217 7.15385 21.8689 7.16324 21.913 7.1815C21.9571 7.19975 21.9971 7.22651 22.0309 7.26024C22.0646 7.29398 22.0913 7.33402 22.1096 7.3781C22.1279 7.42217 22.1373 7.46941 22.1373 7.51711V10.7411L19.2675 13.6018H13.8912C13.7948 13.6018 13.7024 13.64 13.6343 13.7082C13.5662 13.7763 13.5279 13.8687 13.5279 13.965C13.5279 14.0614 13.5662 14.1538 13.6343 14.2219C13.7024 14.29 13.7948 14.3283 13.8912 14.3283H18.5455L15.3851 17.4842H13.8912C13.7948 17.4842 13.7024 17.5224 13.6343 17.5906C13.5662 17.6587 13.5279 17.7511 13.5279 17.8474C13.5279 17.9438 13.5662 18.0362 13.6343 18.1043C13.7024 18.1724 13.7948 18.2107 13.8912 18.2107H14.6631L13.8049 19.0644C13.7286 19.1401 13.6697 19.2315 13.6324 19.3323L13.5234 19.632L12.8377 21.471C12.7685 21.6386 12.762 21.8257 12.8195 21.9977C12.8852 22.1779 13.0194 22.3249 13.1929 22.4065C13.3664 22.4882 13.5652 22.4979 13.7459 22.4336L14.0864 22.3156L15.9209 21.6571C16.0295 21.6221 16.1288 21.5631 16.2115 21.4846L22.1327 15.5589V24.15C22.1327 24.2464 22.0944 24.3388 22.0263 24.4069C21.9582 24.475 21.8658 24.5133 21.7694 24.5133H7.88371C7.83601 24.5133 7.78877 24.5039 7.7447 24.4857C7.70062 24.4674 7.66058 24.4406 7.62684 24.4069C7.59311 24.3732 7.56635 24.3331 7.5481 24.2891C7.52984 24.245 7.52045 24.1977 7.52045 24.15V7.51711C7.52045 7.46941 7.52984 7.42217 7.5481 7.3781C7.56635 7.33402 7.59311 7.29398 7.62684 7.26024C7.66058 7.22651 7.70062 7.19975 7.7447 7.1815C7.78877 7.16324 7.83601 7.15385 7.88371 7.15385H7.87917ZM13.8912 9.72394C13.8024 9.73391 13.7204 9.77623 13.6609 9.84282C13.6014 9.90942 13.5685 9.99561 13.5685 10.0849C13.5685 10.1743 13.6014 10.2604 13.6609 10.327C13.7204 10.3936 13.8024 10.436 13.8912 10.4459H19.9985C20.0949 10.4459 20.1873 10.4076 20.2554 10.3395C20.3235 10.2714 20.3618 10.179 20.3618 10.0827C20.3618 9.98632 20.3235 9.89392 20.2554 9.82579C20.1873 9.75767 20.0949 9.7194 19.9985 9.7194H13.8912V9.72394ZM9.65916 8.87027H11.4301C11.4658 8.87027 11.5013 8.87731 11.5343 8.89101C11.5674 8.9047 11.5974 8.92477 11.6227 8.95007C11.648 8.97536 11.6681 9.0054 11.6818 9.03845C11.6955 9.07151 11.7025 9.10694 11.7025 9.14272V10.8319C11.7025 10.8677 11.6955 10.9031 11.6818 10.9362C11.6681 10.9692 11.648 10.9992 11.6227 11.0245C11.5974 11.0498 11.5674 11.0699 11.5343 11.0836C11.5013 11.0973 11.4658 11.1043 11.4301 11.1043H9.65916C9.5869 11.1043 9.5176 11.0756 9.46651 11.0245C9.41542 10.9734 9.38671 10.9041 9.38671 10.8319V9.13817C9.38671 9.06592 9.41542 8.99662 9.46651 8.94552C9.5176 8.89443 9.5869 8.86573 9.65916 8.86573V8.87027ZM9.65916 12.7526H11.4301C11.4658 12.7526 11.5013 12.7597 11.5343 12.7734C11.5674 12.7871 11.5974 12.8071 11.6227 12.8324C11.648 12.8577 11.6681 12.8878 11.6818 12.9208C11.6955 12.9539 11.7025 12.9893 11.7025 13.0251V14.7143C11.7025 14.75 11.6955 14.7855 11.6818 14.8185C11.6681 14.8516 11.648 14.8816 11.6227 14.9069C11.5974 14.9322 11.5674 14.9523 11.5343 14.966C11.5013 14.9797 11.4658 14.9867 11.4301 14.9867H9.65916C9.5869 14.9867 9.5176 14.958 9.46651 14.9069C9.41542 14.8558 9.38671 14.7865 9.38671 14.7143V13.0206C9.38671 12.9483 9.41542 12.879 9.46651 12.8279C9.5176 12.7768 9.5869 12.7481 9.65916 12.7481V12.7526ZM9.65916 16.6305H11.4301C11.4658 16.6305 11.5013 16.6375 11.5343 16.6512C11.5674 16.6649 11.5974 16.685 11.6227 16.7103C11.648 16.7356 11.6681 16.7656 11.6818 16.7987C11.6955 16.8317 11.7025 16.8672 11.7025 16.9029V18.5966C11.7025 18.6689 11.6738 18.7382 11.6227 18.7893C11.5716 18.8404 11.5023 18.8691 11.4301 18.8691H9.65916C9.5869 18.8691 9.5176 18.8404 9.46651 18.7893C9.41542 18.7382 9.38671 18.6689 9.38671 18.5966V16.9029C9.38671 16.8307 9.41542 16.7614 9.46651 16.7103C9.5176 16.6592 9.5869 16.6305 9.65916 16.6305Z" fill="#202020"/>
<path d="M9.84081 10.1235C9.80953 10.1062 9.77321 10.1003 9.73806 10.1068C9.70291 10.1133 9.67109 10.1318 9.64805 10.1591C9.62501 10.1864 9.61216 10.2209 9.61171 10.2567C9.61125 10.2924 9.62322 10.3272 9.64556 10.3551L9.95433 10.6185C10.0134 10.673 10.1042 10.6639 10.1587 10.6139L11.4301 9.52415C11.4559 9.49676 11.4708 9.46089 11.472 9.42327C11.4732 9.38566 11.4607 9.3489 11.4367 9.3199C11.4127 9.29089 11.379 9.27165 11.3418 9.26578C11.3046 9.25991 11.2666 9.26783 11.2348 9.28803L10.0542 10.3006L9.84535 10.1235H9.84081Z" fill="#202020"/>
<path d="M9.84079 14.0059C9.80904 13.9857 9.771 13.9778 9.73383 13.9837C9.69666 13.9896 9.66291 14.0088 9.63892 14.0378C9.61494 14.0668 9.60238 14.1036 9.6036 14.1412C9.60481 14.1788 9.61973 14.2147 9.64553 14.2421L9.95431 14.5009C10.0133 14.5554 10.1042 14.5508 10.1586 14.4963L11.4301 13.4065C11.4524 13.3786 11.4644 13.3438 11.4639 13.3081C11.4635 13.2724 11.4506 13.2379 11.4276 13.2105C11.4045 13.1832 11.3727 13.1647 11.3376 13.1582C11.3024 13.1517 11.2661 13.1577 11.2348 13.175L10.0542 14.1876L9.84533 14.0059H9.84079Z" fill="#202020"/>
</svg>
