<svg width="19" height="14" viewBox="0 0 19 14" fill="none" xmlns="http://www.w3.org/2000/svg">
<path d="M11.0926 12.9036C10.2922 13.9571 8.70778 13.9572 7.90742 12.9036L1.1131 3.95984C0.112706 2.64296 1.05191 0.75 2.70568 0.75L16.2943 0.750001C17.9481 0.750002 18.8873 2.64296 17.8869 3.95984L11.0926 12.9036Z" fill="#FF6868"/>
<path d="M9.044 7.957H10.106L10.25 3.61H8.891L9.044 7.957ZM10.367 9.325C10.367 8.911 10.043 8.587 9.602 8.587C9.143 8.587 8.819 8.911 8.819 9.325C8.819 9.739 9.143 10.063 9.602 10.063C10.043 10.063 10.367 9.739 10.367 9.325Z" fill="white"/>
</svg>
