<svg width="441" height="522" viewBox="0 0 441 522" fill="none" xmlns="http://www.w3.org/2000/svg">
<g opacity="0.85">
<g opacity="0.85">
<g opacity="0.85">
<g opacity="0.81">
<g opacity="0.81">
<path opacity="0.81" d="M413.748 386.296L387.156 432.008L413.748 477.756L440.37 432.008L413.748 386.296Z" fill="white"/>
<path opacity="0.81" d="M312.416 299.243L285.824 344.955L312.416 390.631L339.018 344.955L312.416 299.243Z" fill="#FDFEFF"/>
<path opacity="0.81" d="M413.748 37.9941L387.156 83.724L413.748 129.436L440.37 83.724L413.748 37.9941Z" fill="#F3F3F3"/>
<path opacity="0.81" d="M388.416 81.5557L361.844 127.267L388.416 172.943L415.007 127.267L388.416 81.5557Z" fill="#F3F3F3"/>
<path opacity="0.81" d="M363.092 125.065L336.48 170.831L363.092 216.543L389.694 170.831L363.092 125.065Z" fill="#F8F9FA"/>
<path opacity="0.81" d="M337.738 168.611L311.156 214.341L337.738 260.053L364.35 214.341L337.738 168.611Z" fill="#F6F6F6"/>
<path opacity="0.81" d="M312.416 212.209L285.824 257.885L312.416 303.56L339.018 257.885L312.416 212.209Z" fill="#F6F6F6"/>
<path opacity="0.81" d="M287.072 255.733L260.48 301.391L287.072 347.121L313.674 301.391L287.072 255.733Z" fill="#FDFEFF"/>
<path opacity="0.81" d="M261.744 299.243L235.172 344.955L261.744 390.631L288.366 344.955L261.744 299.243Z" fill="#FDFEFF"/>
<path opacity="0.81" d="M236.451 342.785L209.859 388.497L236.451 434.227L263.023 388.497L236.451 342.785Z" fill="#FDFEFF"/>
<path opacity="0.81" d="M211.118 386.296L184.496 432.008L211.118 477.756L237.71 432.008L211.118 386.296Z" fill="#FDFEFF"/>
<path opacity="0.81" d="M185.774 429.86L159.152 475.554L185.774 521.266L212.376 475.554L185.774 429.86Z" fill="white"/>
<path opacity="0.81" d="M413.748 -49.1123L387.156 -3.40049L413.748 42.3655L440.37 -3.40049L413.748 -49.1123Z" fill="#F2F2F2"/>
<path opacity="0.81" d="M388.416 -5.54785L361.844 40.164L388.416 85.8758L415.007 40.164L388.416 -5.54785Z" fill="#F3F3F3"/>
<path opacity="0.81" d="M363.092 37.9941L336.48 83.724L363.092 129.436L389.694 83.724L363.092 37.9941Z" fill="#F3F3F3"/>
<path opacity="0.81" d="M337.738 81.5557L311.156 127.267L337.738 172.943L364.35 127.267L337.738 81.5557Z" fill="#F3F3F3"/>
<path opacity="0.81" d="M312.416 125.065L285.824 170.831L312.416 216.543L339.018 170.831L312.416 125.065Z" fill="#F3F3F3"/>
<path opacity="0.81" d="M287.072 168.611L260.48 214.341L287.072 260.053L313.674 214.341L287.072 168.611Z" fill="#F3F3F3"/>
<path opacity="0.81" d="M261.744 212.209L235.172 257.885L261.744 303.56L288.366 257.885L261.744 212.209Z" fill="#F8F9FA"/>
<path opacity="0.81" d="M236.451 255.733L209.859 301.391L236.451 347.121L263.023 301.391L236.451 255.733Z" fill="#FDFEFF"/>
<path opacity="0.81" d="M211.118 299.243L184.496 344.955L211.118 390.631L237.71 344.955L211.118 299.243Z" fill="#FDFEFF"/>
<path opacity="0.81" d="M185.774 342.785L159.152 388.497L185.774 434.227L212.376 388.497L185.774 342.785Z" fill="#F8F9FA"/>
<path opacity="0.81" d="M160.432 386.296L133.84 432.008L160.432 477.756L187.034 432.008L160.432 386.296Z" fill="#FDFEFF"/>
<path opacity="0.81" d="M363.092 -49.1123L336.48 -3.40049L363.092 42.3655L389.694 -3.40049L363.092 -49.1123Z" fill="#E7E7E6"/>
<path opacity="0.81" d="M337.738 -5.54785L311.156 40.164L337.738 85.8758L364.35 40.164L337.738 -5.54785Z" fill="#F2F2F2"/>
<path opacity="0.81" d="M312.416 37.9941L285.824 83.724L312.416 129.436L339.018 83.724L312.416 37.9941Z" fill="#E4E4E4"/>
<path opacity="0.81" d="M287.072 81.5557L260.48 127.267L287.072 172.943L313.674 127.267L287.072 81.5557Z" fill="#F1F0F0"/>
<path opacity="0.81" d="M261.744 125.065L235.172 170.831L261.744 216.543L288.366 170.831L261.744 125.065Z" fill="#F5F6F6"/>
<path opacity="0.81" d="M236.451 168.611L209.859 214.341L236.451 260.053L263.023 214.341L236.451 168.611Z" fill="#F3F3F3"/>
<path opacity="0.81" d="M211.118 212.209L184.496 257.885L211.118 303.56L237.71 257.885L211.118 212.209Z" fill="#F7F8F8"/>
<path opacity="0.81" d="M185.774 255.733L159.152 301.391L185.774 347.121L212.376 301.391L185.774 255.733Z" fill="#FAFAFA"/>
<path opacity="0.81" d="M160.432 299.243L133.84 344.955L160.432 390.631L187.034 344.955L160.432 299.243Z" fill="#F7F8F8"/>
<path opacity="0.81" d="M135.099 342.785L108.527 388.497L135.099 434.227L161.691 388.497L135.099 342.785Z" fill="#F7F8F8"/>
<path opacity="0.81" d="M109.79 386.296L83.168 432.008L109.79 477.756L136.382 432.008L109.79 386.296Z" fill="white"/>
<path opacity="0.81" d="M84.4473 429.86L57.8555 475.554L84.4473 521.266L111.039 475.554L84.4473 429.86Z" fill="white"/>
<path opacity="0.81" d="M312.416 -49.1123L285.824 -3.40049L312.416 42.3655L339.018 -3.40049L312.416 -49.1123Z" fill="#EAEAEA"/>
<path opacity="0.81" d="M287.072 -5.54785L260.48 40.164L287.072 85.8758L313.674 40.164L287.072 -5.54785Z" fill="#E4E4E4"/>
<path opacity="0.81" d="M261.744 37.9941L235.172 83.724L261.744 129.436L288.366 83.724L261.744 37.9941Z" fill="#DADBDC"/>
<path opacity="0.81" d="M236.451 81.5557L209.859 127.267L236.451 172.943L263.023 127.267L236.451 81.5557Z" fill="#E0E1E2"/>
<path opacity="0.81" d="M211.118 125.065L184.496 170.831L211.118 216.543L237.71 170.831L211.118 125.065Z" fill="#F6F6F6"/>
<path opacity="0.81" d="M185.774 168.611L159.152 214.341L185.774 260.053L212.376 214.341L185.774 168.611Z" fill="#EDEDEE"/>
<path opacity="0.81" d="M160.432 212.209L133.84 257.885L160.432 303.56L187.034 257.885L160.432 212.209Z" fill="#F8F8F9"/>
<path opacity="0.81" d="M135.099 255.733L108.527 301.391L135.099 347.121L161.691 301.391L135.099 255.733Z" fill="#F3F4F4"/>
<path opacity="0.81" d="M109.79 299.243L83.168 344.955L109.79 390.631L136.382 344.955L109.79 299.243Z" fill="#FDFEFF"/>
<path opacity="0.81" d="M84.4473 342.785L57.8555 388.497L84.4473 434.227L111.039 388.497L84.4473 342.785Z" fill="#FDFEFF"/>
<path opacity="0.81" d="M59.1036 386.296L32.5117 432.008L59.1036 477.756L85.7055 432.008L59.1036 386.296Z" fill="white"/>
<path opacity="0.81" d="M261.744 -49.1123L235.172 -3.40049L261.744 42.3655L288.366 -3.40049L261.744 -49.1123Z" fill="#E7E7E6"/>
<path opacity="0.81" d="M236.451 -5.54785L209.859 40.164L236.451 85.8758L263.023 40.164L236.451 -5.54785Z" fill="#EDEDED"/>
<path opacity="0.81" d="M211.118 37.9941L184.496 83.724L211.118 129.436L237.71 83.724L211.118 37.9941Z" fill="#EDEDED"/>
<path opacity="0.81" d="M185.774 81.5557L159.152 127.267L185.774 172.943L212.376 127.267L185.774 81.5557Z" fill="#ECECEC"/>
<path opacity="0.81" d="M160.432 125.065L133.84 170.831L160.432 216.543L187.034 170.831L160.432 125.065Z" fill="#F6F6F6"/>
<path opacity="0.81" d="M135.099 168.611L108.527 214.341L135.099 260.053L161.691 214.341L135.099 168.611Z" fill="#F6F6F6"/>
<path opacity="0.81" d="M109.79 212.209L83.168 257.885L109.79 303.56L136.382 257.885L109.79 212.209Z" fill="#F3F3F3"/>
<path opacity="0.81" d="M84.4473 255.733L57.8555 301.391L84.4473 347.121L111.039 301.391L84.4473 255.733Z" fill="#EDEDED"/>
<path opacity="0.81" d="M59.1036 299.243L32.5117 344.955L59.1036 390.631L85.7055 344.955L59.1036 299.243Z" fill="#F6F6F6"/>
<path opacity="0.81" d="M33.7737 342.785L7.17188 388.497L33.7737 434.227L60.3656 388.497L33.7737 342.785Z" fill="#F6F6F6"/>
<path opacity="0.81" d="M8.46171 386.296L-18.1602 432.008L8.46171 477.756L35.0536 432.008L8.46171 386.296Z" fill="white"/>
<path opacity="0.81" d="M211.118 -49.1123L184.496 -3.40049L211.118 42.3655L237.71 -3.40049L211.118 -49.1123Z" fill="#DFDFDE"/>
<path opacity="0.81" d="M185.774 -5.54785L159.152 40.164L185.774 85.8758L212.376 40.164L185.774 -5.54785Z" fill="#EDEDED"/>
<path opacity="0.81" d="M160.432 37.9941L133.84 83.724L160.432 129.436L187.034 83.724L160.432 37.9941Z" fill="#ECECEC"/>
<path opacity="0.81" d="M135.099 81.5557L108.527 127.267L135.099 172.943L161.691 127.267L135.099 81.5557Z" fill="#F1F0F0"/>
<path opacity="0.81" d="M109.79 125.065L83.168 170.831L109.79 216.543L136.382 170.831L109.79 125.065Z" fill="#F5F6F6"/>
<path opacity="0.81" d="M84.4473 168.611L57.8555 214.341L84.4473 260.053L111.039 214.341L84.4473 168.611Z" fill="#ECECEC"/>
<path opacity="0.81" d="M59.1036 212.209L32.5117 257.885L59.1036 303.56L85.7055 257.885L59.1036 212.209Z" fill="#EDEDED"/>
<path opacity="0.81" d="M33.7737 255.733L7.17188 301.391L33.7737 347.121L60.3656 301.391L33.7737 255.733Z" fill="#ECECEC"/>
<path opacity="0.81" d="M8.46171 299.243L-18.1602 344.955L8.46171 390.631L35.0536 344.955L8.46171 299.243Z" fill="#F8F9FA"/>
<path opacity="0.81" d="M-16.9125 342.785L-43.4844 388.497L-16.9125 434.227L9.70936 388.497L-16.9125 342.785Z" fill="#FBFCFC"/>
<path opacity="0.81" d="M160.432 -49.1123L133.84 -3.40049L160.432 42.3655L187.034 -3.40049L160.432 -49.1123Z" fill="#E3E3E3"/>
<path opacity="0.81" d="M135.099 -5.54785L108.527 40.164L135.099 85.8758L161.691 40.164L135.099 -5.54785Z" fill="#ECECEC"/>
<path opacity="0.81" d="M109.79 37.9941L83.168 83.724L109.79 129.436L136.382 83.724L109.79 37.9941Z" fill="#F0EFEF"/>
<path opacity="0.81" d="M84.4473 81.5557L57.8555 127.267L84.4473 172.943L111.039 127.267L84.4473 81.5557Z" fill="#EFEEEE"/>
<path opacity="0.81" d="M59.1036 125.065L32.5117 170.831L59.1036 216.543L85.7055 170.831L59.1036 125.065Z" fill="#F3F3F3"/>
<path opacity="0.81" d="M33.7737 168.611L7.17188 214.341L33.7737 260.053L60.3656 214.341L33.7737 168.611Z" fill="#F3F3F3"/>
<path opacity="0.81" d="M8.46171 212.209L-18.1602 257.885L8.46171 303.56L35.0536 257.885L8.46171 212.209Z" fill="#EDEDED"/>
<path opacity="0.81" d="M-16.9125 255.733L-43.4844 301.391L-16.9125 347.121L9.70936 301.391L-16.9125 255.733Z" fill="#F0EFEF"/>
<path opacity="0.81" d="M109.79 -49.1123L83.168 -3.40049L109.79 42.3655L136.382 -3.40049L109.79 -49.1123Z" fill="#ECECEC"/>
<path opacity="0.81" d="M84.4473 -5.54785L57.8555 40.164L84.4473 85.8758L111.039 40.164L84.4473 -5.54785Z" fill="#F3F3F3"/>
<path opacity="0.81" d="M59.1036 37.9941L32.5117 83.724L59.1036 129.436L85.7055 83.724L59.1036 37.9941Z" fill="#EDEDED"/>
<path opacity="0.81" d="M33.7737 81.5557L7.17188 127.267L33.7737 172.943L60.3656 127.267L33.7737 81.5557Z" fill="#EBEBEB"/>
<path opacity="0.81" d="M8.46171 125.065L-18.1602 170.831L8.46171 216.543L35.0536 170.831L8.46171 125.065Z" fill="#ECECEC"/>
<path opacity="0.81" d="M-16.9125 168.611L-43.4844 214.341L-16.9125 260.053L9.70936 214.341L-16.9125 168.611Z" fill="#EFEEEE"/>
<path opacity="0.81" d="M59.1036 -49.1123L32.5117 -3.40049L59.1036 42.3655L85.7055 -3.40049L59.1036 -49.1123Z" fill="#D8D9D8"/>
<path opacity="0.81" d="M33.7737 -5.54785L7.17188 40.164L33.7737 85.8758L60.3656 40.164L33.7737 -5.54785Z" fill="#EDEDED"/>
<path opacity="0.81" d="M8.46171 37.9941L-18.1602 83.724L8.46171 129.436L35.0536 83.724L8.46171 37.9941Z" fill="#F0EFEF"/>
<path opacity="0.81" d="M-16.9125 81.5557L-43.4844 127.267L-16.9125 172.943L9.70936 127.267L-16.9125 81.5557Z" fill="#D0D1D1"/>
<path opacity="0.81" d="M8.46171 -49.1123L-18.1602 -3.40049L8.46171 42.3655L35.0536 -3.40049L8.46171 -49.1123Z" fill="#EAEAEA"/>
<path opacity="0.81" d="M-16.9125 -5.54785L-43.4844 40.164L-16.9125 85.8758L9.70936 40.164L-16.9125 -5.54785Z" fill="#F2F2F2"/>
</g>
</g>
</g>
</g>
</g>
</svg>
