<svg width="27" height="37" viewBox="0 0 37 37" fill="none" xmlns="http://www.w3.org/2000/svg">
                            <path fill-rule="evenodd" clip-rule="evenodd"
                                d="M24.0924 0C30.7453 0 36.1386 5.39326 36.1386 12.0462C36.1386 14.0785 35.9909 16.2566 35.6956 18.5806C34.8251 22.8944 33.2607 26.112 30.1166 29.2561C27.169 32.2037 23.9259 34.0298 19.446 35.4833C16.9837 36.2198 12.0462 36.1386 12.0462 36.1386C5.39326 36.1386 0 30.7453 0 24.0924V12.0462C0 5.39326 5.39326 0 12.0462 0H24.0924ZM24.0931 2.40641H12.0469C6.72458 2.40641 2.40997 6.72102 2.40997 12.0434V24.0896C2.40997 29.4119 6.72458 33.7265 12.0469 33.7265L15.7818 33.7301C17.3073 33.6448 18.07 32.9317 18.07 31.5906L18.07 28.2906C18.07 22.7687 22.5299 18.2835 28.0518 18.2523L29.3741 18.2345L30.2015 18.2087C30.9585 18.1774 31.5041 18.13 31.8384 18.0665C33.0274 17.8404 33.6591 16.9276 33.7333 15.3281L33.7301 12.0434C33.7301 6.72102 29.4155 2.40641 24.0931 2.40641ZM32.2884 20.4354C32.5531 20.3851 32.8041 20.3178 33.0591 20.2292C32.1034 22.973 30.5595 25.4061 28.4138 27.5518C26.2158 29.7499 23.5333 31.4976 20.3494 32.7957C20.4348 32.4231 20.4793 32.0218 20.4793 31.5927L20.4793 28.2927C20.4793 24.096 23.8688 20.6873 28.0654 20.6636L29.0458 20.653C30.5812 20.6273 31.631 20.5604 32.2884 20.4354Z"
                                fill="#12558A" />
                        </svg>