<svg width="30" height="30" viewBox="0 0 30 30" fill="none" xmlns="http://www.w3.org/2000/svg">
<path d="M8.77778 21.2222L13.2562 16.7438L8.77778 21.2222ZM13.2562 16.7438C13.6882 17.183 14.2029 17.5323 14.7705 17.7716C15.3382 18.0108 15.9476 18.1354 16.5636 18.1379C17.1797 18.1405 17.7901 18.0211 18.3598 17.7866C18.9294 17.5521 19.447 17.2071 19.8826 16.7715C20.3183 16.336 20.6634 15.8185 20.8981 15.2489C21.1327 14.6793 21.2523 14.0689 21.2498 13.4529C21.2474 12.8368 21.123 12.2274 20.8839 11.6597C20.6447 11.092 20.2955 10.5772 19.8564 10.1451C18.979 9.28161 17.7958 8.79982 16.5648 8.80469C15.3337 8.80955 14.1544 9.30068 13.2838 10.1711C12.4131 11.0415 11.9217 12.2207 11.9166 13.4518C11.9114 14.6829 12.3929 15.8661 13.2562 16.7438V16.7438ZM29 15C29 16.8385 28.6379 18.659 27.9343 20.3576C27.2307 22.0561 26.1995 23.5995 24.8995 24.8995C23.5995 26.1995 22.0561 27.2307 20.3576 27.9343C18.659 28.6379 16.8385 29 15 29C13.1615 29 11.341 28.6379 9.64243 27.9343C7.94387 27.2307 6.40053 26.1995 5.1005 24.8995C3.80048 23.5995 2.76925 22.0561 2.06569 20.3576C1.36212 18.659 1 16.8385 1 15C1 11.287 2.475 7.72601 5.1005 5.10051C7.72601 2.475 11.287 1 15 1C18.713 1 22.274 2.475 24.8995 5.10051C27.525 7.72601 29 11.287 29 15Z" stroke="#202020" stroke-linecap="round" stroke-linejoin="round"/>
</svg>
