<svg width="9" height="14" viewBox="0 0 9 14" fill="none" xmlns="http://www.w3.org/2000/svg">
<path d="M8.9973 4.97082C8.9973 2.49183 6.97791 0.472656 4.49865 0.472656C2.0094 0.472656 0 2.49183 0 4.97082C0 5.90044 0.279875 6.76008 0.769728 7.46979V7.48979L4.48864 13.0875L8.23752 7.47978H8.22751C8.70737 6.76008 8.9973 5.89044 8.9973 4.97082ZM4.48864 7.46979C3.10906 7.46979 1.97939 6.35025 1.97939 4.97082C1.97939 3.59138 3.09906 2.46185 4.48864 2.46185C5.87823 2.46185 6.98789 3.58138 6.98789 4.97082C6.99789 6.35025 5.88822 7.46979 4.48864 7.46979Z" fill="#ED1C24"/>
</svg>
